# xmcd CD database file
#
# Track frame offsets:
#	225
#	11745
#	26015
#	47129
#	59295
#	71959
#	84251
#	101813
#	117714
#	130784
#	145262
#	158293
#	170885
#	183292
#	192444
#	205717
#	216510
#	231286
#	242928
#	254317
#	266864
#	276631
#
# Disc length: 3835 seconds
#
# Revision: 0
# Processed by: cddbd v1.5.2PL0 Copyright (c) Steve Scherf et al.
# Submitted via: CDex 1.51
#
DISCID=5b0ef816
DTITLE=Chet Atkins - Superpickers
DYEAR=1974
DGENRE=Country
TTITLE0=Paramaribo
TTITLE1=Fiddlin' Around
TTITLE2=Mr. Bojangles
TTITLE3=Beef and Biscuits
TTITLE4=Sweet Dreams
TTITLE5=Just Another Rag
TTITLE6=Canadian Pacific
TTITLE7=City of New Orleans
TTITLE8=Bells of Saint Mary's
TTITLE9=Are You from Dixie? (Cause I'm from Dixie, Too!)
TTITLE10=You'll Never Walk Alone
TTITLE11=Lovely Weather
TTITLE12=Insensatez (How Insensitive)
TTITLE13=Colonel Bogey
TTITLE14=Nuages
TTITLE15=Anna (El Negro Zumbon)
TTITLE16=Battle Hymn of the Republic
TTITLE17=All
TTITLE18=El Paso
TTITLE19=Tears
TTITLE20=I Wish I Knew
TTITLE21=Ay Ay Ay
EXTD=YEAR: 1974
EXTT0=
EXTT1=
EXTT2=
EXTT3=
EXTT4=
EXTT5=
EXTT6=
EXTT7=
EXTT8=
EXTT9=
EXTT10=
EXTT11=
EXTT12=
EXTT13=
EXTT14=
EXTT15=
EXTT16=
EXTT17=
EXTT18=
EXTT19=
EXTT20=
EXTT21=
PLAYORDER=
